# xmcd CD database file
#
# Track frame offsets:
#	150
#	27752
#	53394
#	76922
#	96668
#	115151
#	132533
#	151529
#	162888
#	183242
#	214388
#	235362
#
# Disc length: 3267 seconds
#
# Revision: 0
# Processed by: cddbd v1.5PL3 Copyright (c) Steve Scherf et al.
# Submitted via: CDex 1.51
#
DISCID=950cc10c
DTITLE=Molly Pauken - Her Kaleidoscope
DYEAR=1995
DGENRE=Jazz
TTITLE0=Out
TTITLE1=Rose Colored Glasses
TTITLE2=Say Youl'll Stay (The Long Road Pt II)
TTITLE3=Turn Around
TTITLE4=Not Enough
TTITLE5=Boiling Pt.
TTITLE6=Remember Forever
TTITLE7=Salida Del Sol
TTITLE8=In My Heart
TTITLE9=Could've Been Mojo
TTITLE10=Could You Repeat That?
TTITLE11=The Long Road (Reprise)
EXTD=YEAR: 1995
EXTT0=
EXTT1=
EXTT2=
EXTT3=
EXTT4=
EXTT5=
EXTT6=
EXTT7=
EXTT8=
EXTT9=
EXTT10=
EXTT11=
PLAYORDER=
